# xmcd
#
# Track frame offsets:
# 150
# 13776
# 28905
# 49150
# 68214
# 85685
# 100472
# 121489
# 142198
# 159408
# 176338
# 191872
# 208380
# 228834
# 249154
# 263344
# 281510
# 305019
# 321326
# 341407
#
# Disc length: 4800 seconds
#
#
# Revision: 0
# Processed by: cddbd v1.5PL3 Copyright (c) Steve Scherf et al.
# Submitted via: FreeRIP 2.51 
#
DISCID=2312be14
DTITLE=Γιάννης Πάριος - 35 Χρόνια CD3
DYEAR=2004
DGENRE=Λαϊκά
TTITLE0=Το σημάδι
TTITLE1=Ποιός να συγκριθεί μαζί σου
TTITLE2=Σήμερα
TTITLE3=Θαλασσάκι μου
TTITLE4=Έχω μια δίψα
TTITLE5=Το τραγούδι του Χάρη Νο2
TTITLE6=’πονη Καρδιά
TTITLE7=Δεν τη νοιάζει
TTITLE8=Το Σαράκι
TTITLE9=Γέλα μου και ας είναι ψέμα
TTITLE10=Διάλεξες την τύχη μου
TTITLE11=Τόσα γράμματα
TTITLE12=Το σημάδι του έρωτα
TTITLE13=Μου'χεις κάνει τη ζωή μου κόλαση
TTITLE14=Εγώ λέω να πηγαίνω
TTITLE15=Διπλανό τραπέζι
TTITLE16=Όμορφη πόλη
TTITLE17=Αν θυμηθείς τ'όνειρο μου
TTITLE18=Μαργαρίτα Μαγιοπούλα
TTITLE19=Νύχτα μαγικιά
EXTD=
EXTT0=
EXTT1=
EXTT2=
EXTT3=
EXTT4=
EXTT5=
EXTT6=
EXTT7=
EXTT8=
EXTT9=
EXTT10=
EXTT11=
EXTT12=
EXTT13=
EXTT14=
EXTT15=
EXTT16=
EXTT17=
EXTT18=
EXTT19=
PLAYORDER=
